<svg width="960" height="960" viewBox="0 0 960 960" fill="none" xmlns="http://www.w3.org/2000/svg">
<path d="M249.121 524.14H449.889C444.276 511.731 436.505 500.606 427.005 491.194C407.145 471.512 379.512 459.532 349.289 459.532C304.818 459.104 265.959 486.06 249.121 524.141V524.14ZM242.644 592.6C247.393 612.282 257.756 630.253 272.004 644.373C291.865 664.054 319.497 676.034 349.721 676.034C383.83 676.034 414.054 660.631 434.345 636.242L505.155 671.755C471.476 720.961 414.054 753.48 349.721 753.48C297.91 753.48 250.849 732.513 216.74 699.14C182.631 665.337 161.475 619.127 161.475 567.783C161.475 465.52 246.099 382.079 349.283 382.079C401.094 382.079 448.156 403.045 482.265 436.419C516.374 470.222 537.529 516.432 537.529 567.776C537.529 576.333 537.097 584.463 535.803 592.593H242.635L242.644 592.6Z" fill="white"/>
<path d="M539.34 127.181C537.581 127.572 535.822 128.549 534.259 129.722C511.981 161.379 499.084 199.876 499.084 241.5C499.084 293.328 519.672 343.033 556.32 379.681C574.466 397.827 596.009 412.221 619.718 422.042C643.427 431.862 668.838 436.917 694.501 436.917C753.126 436.917 805.497 411.122 841.063 370.475L792.209 375.361C738.469 381.223 683.753 382.005 629.231 377.51C615.357 377.119 601.482 373.602 588.78 367.544C571.974 359.923 560.64 343.703 559.077 325.334C558.881 322.207 560.054 319.667 562.204 317.126L605 272.767L753.712 118.388V116.433H671.832C627.473 117.215 583.309 120.733 539.34 127.181ZM854.156 348.979C855.915 348.393 857.674 347.807 859.237 346.83C878.583 316.345 889.917 280.584 889.917 241.5C889.917 215.838 884.863 190.426 875.042 166.717C865.222 143.008 850.827 121.466 832.681 103.32C814.535 85.1736 792.992 70.7793 769.283 60.9587C745.574 51.1381 720.163 46.0835 694.501 46.0835C640.175 46.0835 590.93 68.1656 555.559 104.122H561.031C621.806 96.3056 683.362 94.3514 744.527 97.8689C762.897 97.6735 781.461 101.191 798.658 108.031C816.636 115.066 829.143 131.676 831.292 151.022C831.292 154.149 829.924 157.471 827.775 159.816L649.75 342.921L635.876 357.773V359.923H716.778C762.897 358.75 808.624 355.037 854.156 348.979Z" fill="white"/>
</svg>
